<svg width="24" height="24" viewBox="0 0 24 24" fill="none" xmlns="http://www.w3.org/2000/svg">
<path d="M10.125 22.125C9.92608 22.125 9.73531 22.046 9.59466 21.9053C9.45401 21.7647 9.37499 21.5739 9.37499 21.375V14.1637L2.42249 6.5175C2.14881 6.21591 1.96855 5.84136 1.90358 5.43931C1.83862 5.03727 1.89176 4.62501 2.05653 4.25257C2.22131 3.88013 2.49065 3.56353 2.83186 3.34119C3.17307 3.11885 3.57148 3.00032 3.97874 3H20.0212C20.4285 3.00032 20.8269 3.11885 21.1681 3.34119C21.5093 3.56353 21.7787 3.88013 21.9435 4.25257C22.1082 4.62501 22.1614 5.03727 22.0964 5.43931C22.0314 5.84136 21.8512 6.21591 21.5775 6.5175L14.625 14.1637V18.375C14.6249 18.4873 14.5996 18.5982 14.5509 18.6995C14.5023 18.8008 14.4314 18.8898 14.3437 18.96L10.5937 21.96C10.4608 22.0667 10.2955 22.1249 10.125 22.125ZM3.97874 4.5C3.86204 4.50029 3.74791 4.5344 3.65019 4.5982C3.55247 4.66201 3.47533 4.75276 3.42811 4.85949C3.3809 4.96622 3.36563 5.08435 3.38415 5.19958C3.40268 5.31481 3.4542 5.4222 3.53249 5.50875L10.68 13.3837C10.8024 13.5184 10.8718 13.693 10.875 13.875V19.815L13.125 18V13.875C13.1245 13.6878 13.1941 13.5073 13.32 13.3688L20.4675 5.49375C20.5411 5.40681 20.5886 5.30081 20.6046 5.188C20.6205 5.07519 20.6042 4.96018 20.5575 4.85625C20.5109 4.75232 20.4357 4.66372 20.3408 4.60068C20.2459 4.53764 20.1351 4.50273 20.0212 4.5H3.97874Z" fill="white"/>
</svg>
